<svg width="861" height="123" viewBox="0 0 861 123" fill="none" xmlns="http://www.w3.org/2000/svg">
<g clip-path="url(#clip0_1382_10183)">
<path fill-rule="evenodd" clip-rule="evenodd" d="M80.0268 10.6855C108.317 10.6548 131.279 33.3252 131.356 61.3846C131.395 89.444 108.547 112.222 80.2574 112.307C51.9674 112.383 28.9664 89.6362 28.928 61.6152C28.8511 33.5559 51.7368 10.724 80.0268 10.6855ZM80.2574 123C114.482 122.923 142.203 95.3403 142.134 61.3846C142.057 27.4289 114.221 -0.0769584 79.9884 -8.33915e-05C45.7636 0.0767916 18.0809 27.6595 18.1655 61.6152C18.1962 95.5709 46.025 123.077 80.2574 123ZM272.268 88.9289C270.054 85.754 267.279 85.754 264.235 87.9449C259.661 91.2275 251.174 96.478 240.096 96.478C218.848 96.478 206.924 79.8192 206.924 61.4999C206.924 43.4343 218.471 27.9132 239.981 27.9132C250.105 27.9132 257.877 32.0414 262.174 34.7935C265.526 36.8692 268.148 36.5694 270.093 33.4329L272.614 29.4277C274.551 26.4065 274.398 23.6467 271.507 21.4634C266.172 17.758 255.317 11.6695 239.22 11.6695C209.361 11.6695 188.428 33.4252 188.428 61.8074C188.428 90.5894 208.416 112.76 239.366 112.76C252.021 112.809 264.314 108.532 274.205 100.637C276.988 98.2923 277.142 95.3787 275.051 92.6727L272.268 88.9289ZM302.657 95.8015H339.434C343.316 95.8015 345.261 97.7234 345.261 101.467V105.311C345.261 109.178 343.316 111.1 339.434 111.1H290.587C286.851 111.1 284.914 109.178 284.914 105.319V19.1187C284.914 15.4134 286.851 13.3377 290.587 13.3377H296.983C300.712 13.3377 302.657 15.4134 302.657 19.1187V95.8015ZM389.118 11.6695C359.268 11.6695 338.181 33.5866 338.181 61.546C338.181 90.3204 359.268 112.752 389.118 112.752C418.969 112.752 440.063 90.3204 440.063 61.546C440.063 33.5866 418.969 11.6695 389.118 11.6695ZM389.118 96.5165C370.238 96.5165 356.638 81.3721 356.638 61.5384C356.638 42.5425 370.238 27.9594 389.118 27.9594C408.006 27.9594 421.598 42.5425 421.598 61.546C421.598 81.3721 408.006 96.5165 389.118 96.5165ZM515.954 13.3377H522.342C526.109 13.3377 528.054 15.4134 528.093 19.1187V76.0062C528.093 97.8695 512.256 112.76 488.533 112.76C464.655 112.76 448.819 97.9233 448.819 76.0062V19.1187C448.819 15.4134 450.764 13.3377 454.493 13.3377H460.743C464.617 13.3377 466.562 15.4134 466.562 19.1187V75.8525C466.562 89.075 475.164 96.5165 488.341 96.5165C501.517 96.5165 510.273 89.0827 510.273 75.8602V19.1187C510.273 15.4134 512.218 13.3377 515.954 13.3377ZM576.186 13.3377H548.311C544.582 13.3377 542.599 15.4134 542.599 19.1187V105.319C542.599 109.17 544.544 111.1 548.311 111.1H576.224C606.605 111.1 626.485 92.9264 626.485 62.0688C626.447 31.2419 606.605 13.3377 576.186 13.3377ZM575.24 95.8015H560.38V28.6359H575.24C594.959 28.6359 607.981 40.3516 607.981 62.1072C607.981 84.1319 595.228 95.8015 575.24 95.8015ZM691.667 71.1708H698.602C702.368 71.1708 704.421 73.0927 704.383 76.798V80.242C704.383 83.932 702.707 85.8693 699.662 85.8693H691.629V105.28C691.629 109.132 689.684 111.061 685.802 111.061H679.713C675.985 111.061 674.04 109.139 674.04 105.28V85.8693H633.642C629.914 85.8693 627.976 83.932 627.976 80.242V78.8737C627.976 76.1139 628.538 74.0459 630.067 71.8473L668.097 17.0354C669.735 14.4294 671.834 13.3377 675.032 13.3377H685.84C689.722 13.3377 691.667 15.4134 691.667 19.111V71.1708ZM674.04 71.1708V40.8744C674.04 36.0312 674.724 30.673 674.763 30.673H674.493C674.493 30.673 672.249 35.9236 669.62 39.6213L646.849 70.9094V71.1708H674.04ZM825.73 13.3377H819.218C815.598 13.3377 813.545 14.9982 812.822 18.4345L797.709 80.957C796.456 86.4612 796.033 91.2582 796.033 91.2582H795.764C795.764 91.2582 795.195 86.5842 793.673 80.957L777.414 18.2808C776.737 14.9982 774.639 13.3377 771.172 13.3377H766.482C763.023 13.3377 760.924 14.9982 759.979 18.2808L743.604 80.957C742.074 86.5842 741.513 91.2582 741.513 91.2582H741.244C741.244 91.2582 740.975 86.4305 739.722 80.957L725.446 18.4345C724.601 14.9982 722.51 13.3377 719.196 13.3377H712.278C708.119 13.3377 706.281 15.8285 707.281 19.6876L729.052 106.157C729.897 109.431 731.996 111.1 735.455 111.1H745.426C748.885 111.1 750.992 109.431 751.83 106.157L765.998 53.2666C767.52 46.9244 768.504 40.4592 768.504 40.4592H768.927C768.927 40.4592 769.911 46.9244 771.556 53.2589L785.562 106.149C786.4 109.431 788.491 111.1 791.958 111.1H801.822C805.281 111.1 807.372 109.593 808.333 106.257L830.942 19.6415C831.857 15.7977 829.919 13.3377 825.73 13.3377ZM844.733 13.3377H851.121C854.896 13.3377 856.841 15.4134 856.803 19.1187V105.319C856.803 109.17 854.858 111.1 851.121 111.1H844.733C840.997 111.1 839.052 109.17 839.052 105.319V19.1187C839.052 15.4134 840.997 13.3377 844.733 13.3377Z" fill="white"/>
<path d="M165.927 40.9127C165.925 41.4353 165.82 41.9523 165.618 42.4343C165.416 42.9162 165.121 43.3536 164.749 43.7213C164.378 44.089 163.938 44.3799 163.454 44.5773C162.97 44.7747 162.452 44.8748 161.929 44.8718H59.8471C59.3245 44.8748 58.8065 44.7747 58.3226 44.5773C57.8388 44.3799 57.3986 44.089 57.0273 43.7213C56.656 43.3536 56.3608 42.9162 56.1588 42.4343C55.9567 41.9523 55.8516 41.4353 55.8496 40.9127V37.7762C55.8496 35.593 57.6408 33.8171 59.8471 33.8171H161.929C164.128 33.8171 165.927 35.5853 165.927 37.7762V40.9127Z" fill="white"/>
<path d="M111.699 63.0835C111.698 63.6067 111.594 64.1246 111.392 64.6074C111.191 65.0902 110.896 65.5285 110.524 65.897C110.153 66.2656 109.712 66.5572 109.228 66.7551C108.744 66.953 108.225 67.0533 107.702 67.0502H4.03583C2.98093 67.0503 1.96879 66.6333 1.21999 65.8903C0.471188 65.1472 0.0464447 64.1383 0.0383301 63.0835V59.9624C0.0383301 57.7714 1.82952 55.9956 4.03583 55.9956H107.717C109.916 55.9956 111.715 57.7714 111.715 59.9624V63.0912L111.699 63.0835Z" fill="white"/>
<path d="M156.364 85.2236C156.358 86.2784 155.933 87.2877 155.184 88.0299C154.434 88.7722 153.421 89.1868 152.366 89.1827H48.6926C48.17 89.1857 47.6519 89.0857 47.1681 88.8882C46.6842 88.6908 46.244 88.3999 45.8727 88.0322C45.5014 87.6645 45.2063 87.2271 45.0042 86.7452C44.8021 86.2633 44.6971 85.7462 44.6951 85.2236V82.0871C44.6951 79.9039 46.4786 78.1204 48.6926 78.1204H152.366C154.573 78.1204 156.364 79.9039 156.364 82.0871V85.2236Z" fill="white"/>
</g>
<defs>
<clipPath id="clip0_1382_10183">
<rect width="861" height="123" fill="white"/>
</clipPath>
</defs>
</svg>
